<mxfile host="app.diagrams.net" modified="2024-04-22T11:20:30.895Z" agent="Mozilla/5.0 (Macintosh; Intel Mac OS X 10_15_7) AppleWebKit/537.36 (KHTML, like Gecko) Chrome/123.0.0.0 Safari/537.36" version="24.2.7" etag="DDe-rN2ZnFFzhtME77ho" type="github">
  <diagram name="第 1 页" id="1b694mFoz48atnQa2ofo">
    <mxGraphModel>
      <root>
        <mxCell id="0" />
        <mxCell id="1" parent="0" />
      </root>
    </mxGraphModel>
  </diagram>
</mxfile>
